<svg xmlns="http://www.w3.org/2000/svg" viewBox="0 0 400 340" fill="none" role="img" aria-labelledby="title">
  <title id="title">Ilustración de un médico</title>
  <defs>
    <linearGradient id="coat" x1="115" y1="187" x2="275" y2="335" gradientUnits="userSpaceOnUse">
      <stop stop-color="#fff"/>
      <stop offset="1" stop-color="#edf7f8"/>
    </linearGradient>
    <linearGradient id="skin" x1="198" y1="78" x2="198" y2="202" gradientUnits="userSpaceOnUse">
      <stop stop-color="#ffd5ae"/>
      <stop offset="1" stop-color="#f1b98d"/>
    </linearGradient>
    <filter id="shadow" x="67" y="167" width="270" height="180" filterUnits="userSpaceOnUse">
      <feGaussianBlur stdDeviation="6"/>
    </filter>
  </defs>
  <circle cx="200" cy="178" r="140" fill="#d5eceb" opacity=".18"/>
  <ellipse cx="200" cy="321" rx="112" ry="11" fill="#135b61" opacity=".2" filter="url(#shadow)"/>
  <path d="M166 175c-27 3-48 11-60 35-12 23-21 64-26 87-3 13 7 23 20 23 10 0 17-6 21-16l21-53-3 75h122l-3-75 21 53c4 10 11 16 21 16 13 0 23-10 20-23-5-23-14-64-26-87-12-24-33-32-60-35h-68Z" fill="url(#coat)"/>
  <path d="m167 175 33 39 33-39 18 151H149l18-151Z" fill="#176e69"/>
  <path d="M181 171h38v25c0 11-8 19-19 19s-19-8-19-19v-25Z" fill="#f3bb91"/>
  <path d="M151 176c-12 2-24 8-33 15l13 111c1 13 10 24 22 24h47l-20-48-13-103-16 1Z" fill="url(#coat)"/>
  <path d="M249 176c12 2 24 8 33 15l-13 111c-1 13-10 24-22 24h-47l20-48 13-103 16 1Z" fill="url(#coat)"/>
  <path d="m165 175-23 17 23 25-14 14 49 95-16-112-19-39ZM235 175l23 17-23 25 14 14-49 95 16-112 19-39Z" fill="#fff"/>
  <path d="m165 175 35 39-17 18-31-52 13-5ZM235 175l-35 39 17 18 31-52-13-5Z" fill="#ecf6f5"/>
  <path d="M159 226c-1 42 6 61 40 67m42-67c1 42-6 61-40 67" stroke="#176e69" stroke-width="3" stroke-linecap="round"/>
  <path d="M159 225v-13m82 13v-13" stroke="#176e69" stroke-width="5" stroke-linecap="round"/>
  <circle cx="200" cy="293" r="8" fill="#176e69"/>
  <circle cx="200" cy="293" r="3" fill="#58b7a6"/>
  <path d="M157 123c0-41 17-62 44-62 29 0 46 22 46 62v19c0 39-21 63-47 63s-43-24-43-63v-19Z" fill="url(#skin)"/>
  <path d="M159 140c-10 0-14 8-11 18 3 10 9 15 17 14l-6-32Zm82 0c10 0 14 8 11 18-3 10-9 15-17 14l6-32Z" fill="#f1ba92"/>
  <path d="M153 139c-7-24-5-53 10-68 8-8 18-11 28-9 12-14 36-11 50 1 20 16 19 49 7 76-3-20-12-30-24-33-16-3-25-14-31-19-13 15-24 11-31 24-4 7-6 16-9 28Z" fill="#303e50"/>
  <path d="M166 118c3-11 13-18 24-18 17 0 23 13 48 15" stroke="#435165" stroke-width="4" stroke-linecap="round" opacity=".7"/>
  <path d="M168 144c6-4 13-4 19-1m27 0c6-3 13-3 19 1" stroke="#5f4741" stroke-width="2" stroke-linecap="round"/>
  <circle cx="179" cy="151" r="2.5" fill="#2c3e4d"/>
  <circle cx="221" cy="151" r="2.5" fill="#2c3e4d"/>
  <path d="M200 151v15c0 2 2 3 5 3" stroke="#d79a77" stroke-width="2" stroke-linecap="round"/>
  <path d="M188 180c7 6 17 6 24 0" stroke="#a56c5d" stroke-width="2.5" stroke-linecap="round"/>
  <path d="M135 322h130" stroke="#d0e4e3" stroke-width="2" stroke-linecap="round"/>
</svg>
